<?xml version="1.0" encoding="UTF-8"?>
<!-- This file is generated by npm run build:icons -->
<svg xmlns="http://www.w3.org/2000/svg" xmlns:xlink="http://www.w3.org/1999/xlink" width="0" height="0">
<defs>
<symbol viewBox="0 0 18 18" fill="none" id="18/fullScreen">
    <rect width="3.17647" height="6.35294" fill="white" ></rect>
    <rect width="3.17647" height="6.35294" transform="translate(0 3.17676) rotate(-90)" fill="white" ></rect>
    <rect width="3.17647" height="6.35294" transform="matrix(1 0 0 -1 0 18)" fill="white" ></rect>
    <rect width="3.17647" height="6.35294" transform="matrix(-4.37114e-08 1 1 4.37114e-08 0 14.8232)" fill="white" ></rect>
    <rect width="3.17647" height="6.35294" transform="translate(18) rotate(90)" fill="white" ></rect>
    <rect width="3.17647" height="6.35294" transform="translate(14.8242)" fill="white" ></rect>
    <rect width="3.17647" height="6.35294" transform="matrix(-4.37114e-08 -1 -1 4.37114e-08 18 18)" fill="white" ></rect>
    <rect width="3.17647" height="6.35294" transform="matrix(1 0 0 -1 14.8242 18)" fill="white" ></rect>
</symbol>
<symbol viewBox="0 0 31 31" fill="none" id="18/pause">
    <rect x="9" y="6" width="4" height="19" rx="1" fill="white" ></rect>
    <rect x="18" y="6" width="4" height="19" rx="1" fill="white" ></rect>
</symbol>
<symbol viewBox="0 0 31 31" fill="none" id="18/play">
    <path         d="M25 15.2783V15.7467C24.9987 16.1926 24.7689 16.6052 24.3945 16.834L9.74909 25.5495C8.86546 26.0848 8.40727 26.0848 8.01455 25.8506L7.60545 25.6164C7.24086 25.3939 7.01257 24.9965 7 24.5626V6.46244C7.00132 6.01653 7.23107 5.60392 7.60545 5.37509L8.01455 5.1409C8.40727 4.9067 8.86545 4.9067 10.0109 5.59256L24.3945 14.191C24.7689 14.4198 24.9987 14.8324 25 15.2783Z"
        fill="white" ></path>
</symbol>
<symbol viewBox="0 0 4 18" fill="none" id="18/tracker">
    <rect x="4" y="1.74845e-07" width="18" height="4" rx="1" transform="rotate(90 4 1.74845e-07)" fill="#F6F9FF" ></rect>
</symbol>
<symbol className="w-5 h-5" fill="currentColor" viewBox="0 0 24 24" id="20/pause">
    <path d="M8 5v14l11-7z" ></path>
</symbol>
<symbol viewBox="0 0 19 20" fill="none" id="20/settings">
    <path         d="M18.6247 12.7354L17.8136 12.0741C17.3218 11.6707 17.0513 11.0617 17.0836 10.4309C17.0836 10.2906 17.0836 10.1403 17.0836 10C17.0836 9.85972 17.0836 9.70942 17.0836 9.56914C17.0513 8.9383 17.3218 8.32932 17.8136 7.92587L18.6247 7.26455C19.0095 6.95612 19.1124 6.41797 18.868 5.99202L17.6919 3.98803C17.4427 3.56962 16.9257 3.38806 16.4652 3.55717L15.4513 3.91789C14.853 4.13888 14.1843 4.06834 13.6467 3.72751C13.4083 3.56478 13.1575 3.42072 12.8964 3.29665C12.3259 3.0075 11.9274 2.46873 11.8217 1.84376L11.6494 0.84176C11.569 0.351727 11.1378 -0.00630458 10.6355 8.41592e-05H8.30365C7.8014 -0.00630458 7.37013 0.351727 7.2898 0.84176L7.11745 1.84376C7.02061 2.46084 6.63824 2.99804 6.08332 3.29665C5.82225 3.42072 5.5714 3.56478 5.33307 3.72751C4.79543 4.06834 4.12672 4.13888 3.52841 3.91789L2.51455 3.55717C2.05989 3.39911 1.55549 3.57925 1.30807 3.98803L0.132 5.99202C-0.112414 6.41797 -0.00951343 6.95612 0.375325 7.26455L1.18641 7.92587C1.67818 8.32932 1.9487 8.9383 1.91638 9.56914C1.91638 9.70942 1.91638 9.85972 1.91638 10C1.91638 10.1403 1.91638 10.2906 1.91638 10.4309C1.9487 11.0617 1.67818 11.6707 1.18641 12.0741L0.375325 12.7354C-0.00951343 13.0439 -0.112414 13.582 0.132 14.008L1.30807 16.012C1.55735 16.4304 2.0743 16.6119 2.53483 16.4428L3.54868 16.0821C4.147 15.8611 4.81571 15.9317 5.35334 16.2725C5.59168 16.4352 5.84253 16.5793 6.10359 16.7034C6.67409 16.9925 7.07261 17.5313 7.17828 18.1562L7.35063 19.1582C7.43096 19.6483 7.86223 20.0063 8.36448 19.9999H10.6963C11.1986 20.0063 11.6299 19.6483 11.7102 19.1582L11.8826 18.1562C11.9882 17.5313 12.3867 16.9925 12.9572 16.7034C13.2183 16.5793 13.4692 16.4352 13.7075 16.2725C14.2451 15.9317 14.9138 15.8611 15.5121 16.0821L16.526 16.4428C16.9686 16.5797 17.4487 16.4022 17.6919 16.012L18.868 14.008C19.1124 13.582 19.0095 13.0439 18.6247 12.7354ZM9.5 13.006C7.82019 13.006 6.45844 11.6602 6.45844 10C6.45844 8.33984 7.82019 6.99401 9.5 6.99401C11.1798 6.99401 12.5416 8.33984 12.5416 10C12.5416 10.7972 12.2211 11.5618 11.6507 12.1256C11.0803 12.6893 10.3067 13.006 9.5 13.006Z"
        fill="white" ></path>
</symbol>
<symbol viewBox="0 0 23 21" fill="none" id="24/volume">
    <path         d="M12.7912 1.3125V19.6875C12.7912 20.4124 12.2185 21 11.5121 21H10.7574C10.4218 20.9986 10.1003 20.8619 9.86202 20.6194L4.96299 15.5925C4.24403 14.8539 3.26864 14.4384 2.25125 14.4375C1.00792 14.4375 0 13.4033 0 12.1275V8.8725C0 7.59672 1.00792 6.5625 2.25125 6.5625C3.26864 6.56158 4.24403 6.14614 4.96299 5.4075L9.86202 0.380625C10.1003 0.138148 10.4218 0.00144981 10.7574 0H11.5121C12.2185 0 12.7912 0.587626 12.7912 1.3125ZM20.4659 3.58313C20.3429 3.45533 20.1798 3.3763 20.0054 3.36C19.8279 3.35535 19.6564 3.42666 19.5322 3.55687L18.624 4.48875C18.3965 4.74046 18.3965 5.12954 18.624 5.38125C21.0806 8.32826 21.0806 12.6717 18.624 15.6187C18.3965 15.8705 18.3965 16.2595 18.624 16.5112L19.5322 17.4431C19.6564 17.5733 19.8279 17.6447 20.0054 17.64C20.1804 17.626 20.3442 17.5466 20.4659 17.4169C23.8447 13.4573 23.8447 7.54273 20.4659 3.58313ZM16.4239 7.0875C16.2384 7.08026 16.058 7.15142 15.9251 7.28438L15.0169 8.22938C14.7988 8.4479 14.7613 8.79394 14.9273 9.05625C15.4896 9.9323 15.4896 11.0677 14.9273 11.9438C14.7613 12.2061 14.7988 12.5521 15.0169 12.7706L15.9251 13.7156C16.0593 13.8451 16.24 13.9117 16.4239 13.8994C16.6086 13.8874 16.7801 13.7971 16.8972 13.65C18.2616 11.7833 18.2616 9.21667 16.8972 7.35C16.7778 7.20379 16.6085 7.10989 16.4239 7.0875Z"
        fill="white" ></path>
</symbol>
</defs>
</svg>
